# xmcd
# Track frame offsets:
# 150
# 18874
# 35964
# 48484
# 66363
# 79295
# 98037
# 114538
# 128678
# 146305
# 163392
# 184019
# 198421
# 216506
# 232648
#
# Disc length: 3290 seconds
# Revision: 0
# Processed by: cddbd v1.5.1PL0 Copyright (c) Steve Scherf et al.
# Submitted via: VisiTrax 2.9.10.228 - For more info visit www.synapsa.com
#
DISCID=d40cd80f
DTITLE=Yearwood, Trisha - CB90043
DYEAR=1900
DGENRE=Karaoke
TTITLE0=She's In Love With The Boy
TTITLE1=Lonely Road Of Faith
TTITLE2=That's What I Like About You
TTITLE3=Woman Before Me, The
TTITLE4=Wrong Side Of Memphis, The
TTITLE5=Song Remembers When, The
TTITLE6=Thinkin' About You
TTITLE7=XXXs and OOOs (An American Girl)
TTITLE8=Believe Me Baby I Lied
TTITLE9=Everybody Knows
TTITLE10=How Do I Live
TTITLE11=Perfect Love
TTITLE12=There Goes My Baby
TTITLE13=Where Your Road Leads
TTITLE14=Powerful Thing
EXTD=
EXTT0=
EXTT1=
EXTT2=
EXTT3=
EXTT4=
EXTT5=
EXTT6=
EXTT7=
EXTT8=
EXTT9=
EXTT10=
EXTT11=
EXTT12=
EXTT13=
EXTT14=
PLAYORDER=
